<svg xmlns="http://www.w3.org/2000/svg" version="1.1" xmlns:xlink="http://www.w3.org/1999/xlink" xmlns:svgjs="http://svgjs.dev/svgjs" width="1500" height="1500" viewBox="0 0 1500 1500"><rect width="1500" height="1500" fill="#fe2106"></rect><g transform="matrix(0.6666666666666666,0,0,0.6666666666666666,249.1843730941705,192.2064516129032)"><svg viewBox="0 0 223 248" data-background-color="#fe2106" preserveAspectRatio="xMidYMid meet" height="1668" width="1500" xmlns="http://www.w3.org/2000/svg" xmlns:xlink="http://www.w3.org/1999/xlink"><g id="tight-bounds" transform="matrix(1,0,0,1,0.18188479999997753,0.4000000000000057)"><svg viewBox="0 0 222.63623040000004 247.2" height="247.2" width="222.63623040000004"><g><svg></svg></g><g><svg viewBox="0 0 222.63623040000004 247.2" height="247.2" width="222.63623040000004"><g transform="matrix(1,0,0,1,0,47.215199999999996)"><svg viewBox="0 0 222.63623040000004 152.7696" height="152.7696" width="222.63623040000004"><g><svg viewBox="0 0 222.63623040000004 152.7696" height="152.7696" width="222.63623040000004"><g><svg viewBox="0 0 222.63623040000004 152.7696" height="152.7696" width="222.63623040000004"><g><svg viewBox="0 0 222.63623040000004 152.7696" height="152.7696" width="222.63623040000004"><g id="textblocktransform"><svg viewBox="0 0 222.63623040000004 152.7696" height="152.7696" width="222.63623040000004" id="textblock"><g><svg viewBox="0 0 222.63623040000004 152.7696" height="152.7696" width="222.63623040000004"><g transform="matrix(1,0,0,1,0,0)"><svg width="222.63623040000004" viewBox="1.5 -36.75 54.65 37.5" height="152.7696" data-palette-color="#efdec0"><path d="M20.3-17.35L20.3-17.35Q24.5-16.85 26.85-14.48 29.2-12.1 29.2-8.95L29.2-8.95Q29.2-5.1 25.78-2.63 22.35-0.15 16.7 0L16.7 0 1.8 0 1.5-1.6 5.75-3.15 5.75-29.9 2.2-30.1 2.25-32.5Q10.55-32.9 15.3-32.9L15.3-32.9Q20.9-32.9 24.18-30.68 27.45-28.45 27.45-24.6L27.45-24.6Q27.45-21.85 25.65-19.8 23.85-17.75 20.3-17.35ZM17.25-29.95L10.4-29.2 10.4-18.4 12.9-18.4Q17.7-18.4 20-20.1 22.3-21.8 22.3-24.25L22.3-24.25Q22.3-26.25 20.88-27.93 19.45-29.6 17.25-29.95L17.25-29.95ZM10.4-3.45L15.4-3.05 16.5-3Q20-3 21.9-4.7 23.8-6.4 23.8-8.85L23.8-8.85Q23.8-11.6 21.5-13.6 19.2-15.6 15.7-15.7L15.7-15.7 10.4-15.7 10.4-3.45ZM55.4-3.6L56.15-1.4 51.4 0.75Q49.75 0.4 48.35-1.55L48.35-1.55 42.9-9.85 39-9.25 39-3.1 41.75-2.4 41.45 0 31.1 0 30.85-1.65 34.55-3 34.55-33.15 30.8-32.85 30.2-35.2Q33.55-36.65 37-36.75L37-36.75 39-35 39-11.7 42.8-13.8 48.85-20.85 44.65-20.3 44.05-22.65Q47.85-24.05 52.45-24.2L52.45-24.2 54-21.7 46.1-12.55 52.2-3.75Q52.55-3.25 53.4-3.25L53.4-3.25Q54.3-3.25 55.4-3.6L55.4-3.6Z" opacity="1" transform="matrix(1,0,0,1,0,0)" fill="#efdec0" class="wordmark-text-0" data-fill-palette-color="primary" id="text-0"></path></svg></g></svg></g></svg></g></svg></g><g></g></svg></g></svg></g></svg></g><path d="M0 41.215L0 1 222.636 1 222.636 41.215 208.859 41.215 208.859 14.777 13.777 14.777 13.777 41.215 0 41.215M0 205.985L0 246.2 222.636 246.2 222.636 205.985 208.859 205.985 208.859 232.423 13.777 232.423 13.777 205.985 0 205.985" fill="#efdec0" stroke="transparent" data-fill-palette-color="tertiary"></path></svg></g><defs></defs></svg><rect width="222.63623040000004" height="247.2" fill="none" stroke="none" visibility="hidden"></rect></g></svg></g></svg>